<svg width="14" height="12" viewBox="0 0 14 12" fill="none" xmlns="http://www.w3.org/2000/svg">
<path fill-rule="evenodd" clip-rule="evenodd" d="M12.151 1.868L13.489 4.608H10.365V1.026H10.803C11.084 1.026 11.3594 1.10492 11.5977 1.25379C11.836 1.40266 12.0277 1.61548 12.151 1.868ZM7.958 0C8.424 0 8.841 0.213 9.116 0.548V5.233C9.116 5.578 9.396 5.858 9.741 5.858H13.595V7.939C13.595 8.33682 13.437 8.71836 13.1557 8.99966C12.8744 9.28097 12.4928 9.439 12.095 9.439H11.929V9.499C11.9264 9.98907 11.7341 10.4591 11.3924 10.8105C11.0508 11.1618 10.5864 11.3673 10.0966 11.3837C9.60677 11.4001 9.12964 11.2263 8.76523 10.8986C8.40083 10.5709 8.17747 10.1148 8.142 9.626H5.588C5.55674 10.1065 5.34381 10.5572 4.99242 10.8864C4.64104 11.2157 4.17754 11.3989 3.696 11.3989C3.21446 11.3989 2.75096 11.2157 2.39958 10.8864C2.04819 10.5572 1.83526 10.1065 1.804 9.626H1.5C1.10218 9.626 0.720644 9.46796 0.43934 9.18666C0.158035 8.90536 0 8.52383 0 8.126V1.5C0 1.10218 0.158035 0.720644 0.43934 0.43934C0.720644 0.158035 1.10218 0 1.5 0H7.958ZM4.728 2.25C5.073 2.25 5.353 2.53 5.353 2.875V3.875H6.353C6.51876 3.875 6.67773 3.94085 6.79494 4.05806C6.91215 4.17527 6.978 4.33424 6.978 4.5C6.978 4.66576 6.91215 4.82473 6.79494 4.94194C6.67773 5.05915 6.51876 5.125 6.353 5.125H5.353V6.125C5.353 6.29076 5.28715 6.44973 5.16994 6.56694C5.05273 6.68415 4.89376 6.75 4.728 6.75C4.56224 6.75 4.40327 6.68415 4.28606 6.56694C4.16885 6.44973 4.103 6.29076 4.103 6.125V5.125H3.103C2.93724 5.125 2.77827 5.05915 2.66106 4.94194C2.54385 4.82473 2.478 4.66576 2.478 4.5C2.478 4.33424 2.54385 4.17527 2.66106 4.05806C2.77827 3.94085 2.93724 3.875 3.103 3.875H4.103V2.875C4.103 2.53 4.383 2.25 4.728 2.25Z" fill="#FF0000"/>
</svg>
