<svg width="120" height="120" viewBox="0 0 120 120" fill="none" xmlns="http://www.w3.org/2000/svg">
<path d="M44.9538 104.541L80.1288 104.588L117.413 89.4002C117.413 89.4002 117.657 77.5971 116.935 65.3815C116.213 53.1659 112.829 34.594 112.829 34.594C112.829 34.594 113.035 31.2002 112.623 29.3627C112.229 27.619 111.179 26.2034 108.263 26.0346C105.591 25.8752 45.3382 26.0346 43.6976 26.2409C42.0569 26.4471 32.1663 38.4002 32.1663 38.4002C32.1663 38.4002 18.2163 61.4815 17.8132 61.9971C17.4007 62.5127 8.28819 68.6534 6.83507 70.519C5.31632 72.469 5.41944 74.0627 5.41944 74.0627L5.47569 89.8409L44.9538 104.541Z" fill="#E1E1E1"/>
<path d="M117.421 89.3905C117.421 89.3905 97.0581 89.203 92.8487 90.0843C88.6393 90.9655 85.8081 93.478 83.4268 97.3124C81.0362 101.147 80.0987 104.606 80.0987 104.606C80.0987 104.606 113.342 104.541 114.467 104.606C115.592 104.672 117.111 102.909 117.233 100.519C117.364 98.128 117.421 89.3905 117.421 89.3905ZM44.9706 104.531C44.9706 104.531 42.0831 97.6218 39.0643 94.5374C36.0456 91.453 31.6487 89.3812 26.3706 89.1937C21.0924 89.0062 5.49245 88.8843 5.49245 88.8843C5.49245 88.8843 1.9862 91.7718 1.73307 95.8499C1.47995 99.9374 1.73307 103.828 5.00495 104.081C8.27682 104.334 44.9706 104.531 44.9706 104.531Z" fill="#516C73"/>
<path d="M14.5134 105.422C14.5884 109.856 18.1228 116.25 25.8291 116.297C33.5353 116.344 37.5291 110.447 37.2853 104.4C37.0416 98.2502 32.2603 93.9189 25.3884 94.1064C18.9478 94.2939 14.4103 99.2814 14.5134 105.422Z" fill="#4E433D"/>
<path d="M20.0163 105.159C20.0538 107.503 21.9101 110.869 25.9601 110.897C30.0101 110.925 31.9788 107.991 31.8476 104.803C31.7163 101.559 29.1288 99.1501 25.7257 99.197C22.3507 99.2438 19.9694 101.925 20.0163 105.159Z" fill="#C8C8C8"/>
<path d="M88.06 104.897C88.135 109.331 91.6694 115.725 99.3756 115.772C107.082 115.819 111.076 109.922 110.832 103.875C110.588 97.7248 105.807 93.3936 98.935 93.5811C92.5038 93.7592 87.9663 98.7467 88.06 104.897Z" fill="#4E433D"/>
<path d="M93.5713 104.635C93.6088 106.978 95.465 110.344 99.515 110.372C103.565 110.4 105.534 107.466 105.403 104.278C105.271 101.035 102.684 98.6252 99.2807 98.6721C95.9057 98.7189 93.515 101.391 93.5713 104.635Z" fill="#C8C8C8"/>
<path d="M5.45781 85.1812L117.461 85.6219C117.461 85.6219 117.48 83.6344 117.48 81.0094C117.48 78.4219 117.386 76.4812 117.386 76.4812L5.38281 76.4531L5.45781 85.1812Z" fill="#D70617"/>
<path d="M5.40016 74.0342C5.40016 74.0342 16.8095 73.9873 17.4283 73.9873C18.047 73.9873 18.5345 74.4654 18.5345 75.2811C18.5345 76.0967 18.872 79.1154 16.4252 81.3654C15.3752 82.3311 13.1064 82.5373 10.9595 82.5654C7.74391 82.6029 5.69078 82.6217 5.42828 82.6217C5.42828 82.6217 5.28766 76.2373 5.30641 75.4592C5.34391 74.5498 5.40016 74.0342 5.40016 74.0342Z" fill="#FFE365"/>
<path d="M31.9219 38.8127L113.569 38.794L113.241 36.6752C113.053 35.4659 112.837 34.6034 112.837 34.6034L43.6219 34.6877L43.7062 26.2315C43.7062 26.2315 42.0281 26.0346 41.1469 26.8596C39.9 28.0315 37.6594 30.3846 35.4938 33.2252C33.7969 35.4471 31.9219 38.8127 31.9219 38.8127Z" fill="#C9C9C9"/>
<path d="M34.9857 29.8689C32.8295 32.2783 33.4388 36.2345 33.4388 36.2345C33.4388 36.2345 40.4513 36.4595 40.6951 36.0658C40.9388 35.6814 40.8357 27.197 40.8357 27.197C40.8357 27.197 37.9013 26.597 34.9857 29.8689Z" fill="#FA2B23"/>
<path d="M43.707 26.2595C44.0914 26.2126 66.0008 26.072 66.0008 26.072C66.0008 26.072 66.0008 22.3126 65.9633 20.9533C65.9164 19.1064 64.4539 17.7001 61.7914 17.6064C59.9258 17.5408 49.3133 17.4564 47.6164 17.5595C45.9195 17.6533 43.9789 19.0689 43.8758 21.197C43.7727 23.3251 43.707 26.2595 43.707 26.2595Z" fill="#DD0F26"/>
<path d="M51.9562 21.75L53.1938 24.45L50.2313 24.4031C50.2313 24.4031 47.9531 22.2187 47.9531 21.7312C47.9531 21.2437 50.475 19.35 50.475 19.35L53.5969 19.3125L51.9562 21.75ZM57.2531 21.8062L56.1562 24.525L58.6219 24.5062C58.6219 24.5062 61.1531 22.3313 61.1813 21.9094C61.2188 21.3 58.6406 19.3219 58.6406 19.3219L55.875 19.3125L57.2531 21.8062Z" fill="#FF5B5E"/>
<path d="M85.1055 41.897C84.9086 43.472 84.7773 57.1501 84.7773 57.1501L84.843 71.1564L91.8461 71.0251L92.2398 56.6907L91.9773 42.0282L85.1055 41.897Z" fill="#1E86FE"/>
<path d="M74.7852 61.1624L86.5602 53.1093L98.7383 45.3843L102.535 51.0093L90.4883 59.3905L78.3195 66.9186L74.7852 61.1624Z" fill="#1E86FE"/>
<path d="M77.9234 45.647L74.2578 51.1407L85.9016 59.7188L97.9484 67.1814L101.811 61.6782L89.6328 53.1095L77.9234 45.647Z" fill="#1E86FE"/>
<path d="M35.7091 42.9002C34.4059 43.0221 33.1591 43.4252 32.1747 44.9252C31.1903 46.4346 22.6872 61.8096 21.8341 63.2534C21.3747 64.0315 20.8309 65.2409 21.0372 66.1877C21.2153 66.9846 22.0403 67.5846 22.9403 67.6409C24.8997 67.7721 49.9028 67.5752 51.2809 67.5752C52.6591 67.5752 53.8309 66.394 53.8966 64.3034C53.9622 62.2127 54.0653 47.0159 53.8966 45.3846C53.6997 43.4909 52.4528 42.9002 50.8872 42.8346C49.4434 42.769 37.0778 42.769 35.7091 42.9002Z" fill="#557077"/>
<path d="M37.2174 46.9123C35.933 46.9311 34.9393 47.3529 33.9549 48.9936C33.383 49.9498 26.558 62.3436 26.3612 62.9342C26.1643 63.5248 26.6237 64.0498 27.608 64.0498C28.5924 64.0498 47.5018 63.9186 48.683 63.9186C49.8643 63.9186 50.4549 63.0654 50.5112 61.3029C50.5768 59.5311 50.5112 49.7154 50.5112 48.6748C50.5112 47.6342 49.9862 46.9029 48.6174 46.9029C47.2487 46.8936 38.3987 46.8842 37.2174 46.9123Z" fill="#AFE3FB"/>
</svg>
