<svg width="120" height="120" viewBox="0 0 120 120" fill="none" xmlns="http://www.w3.org/2000/svg">
<g clip-path="url(#clip0_565_24972)">
<path d="M80 33.3333C80 35.1014 79.2976 36.7971 78.0474 38.0474C76.7971 39.2976 75.1014 40 73.3333 40H46.6667C44.8986 40 43.2029 39.2976 41.9526 38.0474C40.7024 36.7971 40 35.1014 40 33.3333V6.66667C40 4.89856 40.7024 3.20286 41.9526 1.95262C43.2029 0.702379 44.8986 0 46.6667 0L73.3333 0C75.1014 0 76.7971 0.702379 78.0474 1.95262C79.2976 3.20286 80 4.89856 80 6.66667V33.3333ZM0 46.6667V113.333C0 115.101 0.702379 116.797 1.95262 118.047C3.20286 119.298 4.89856 120 6.66667 120H113.333C115.101 120 116.797 119.298 118.047 118.047C119.298 116.797 120 115.101 120 113.333V46.6667H0Z" fill="#CCD6DD"/>
<path d="M60 40H6.66667C4.89856 40 3.20286 40.7024 1.95262 41.9526C0.702379 43.2029 0 44.8986 0 46.6667H66.6667C66.6667 44.8986 65.9643 43.2029 64.714 41.9526C63.4638 40.7024 61.7681 40 60 40Z" fill="#99AAB5"/>
<path d="M113.332 40H59.9987C58.2306 40 56.5349 40.7024 55.2847 41.9526C54.0344 43.2029 53.332 44.8986 53.332 46.6667H119.999C119.999 44.8986 119.296 43.2029 118.046 41.9526C116.796 40.7024 115.1 40 113.332 40Z" fill="#99AAB5"/>
<path d="M6.66797 73.3335H113.335V86.6668H6.66797V73.3335ZM6.66797 53.3335H113.335V66.6668H6.66797V53.3335ZM6.66797 93.3335H113.335V106.667H6.66797V93.3335Z" fill="#55ACEE"/>
<path d="M26.668 40H93.3346V120H26.668V40Z" fill="#E1E8ED"/>
<path d="M33.332 66.6665H86.6654V79.9998H33.332V66.6665ZM33.332 46.6665H86.6654V59.9998H33.332V46.6665ZM33.332 86.6665H86.6654V99.9998H33.332V86.6665Z" fill="#55ACEE"/>
<path d="M43.332 106.667H76.6654V120H43.332V106.667Z" fill="#3B88C3"/>
<path d="M73.3346 13.3335H63.3346V3.3335H56.668V13.3335H46.668V20.0002H56.668V30.0002H63.3346V20.0002H73.3346V13.3335Z" fill="#DD2E44"/>
<path d="M86.668 33.3335H33.3346C31.5665 33.3335 29.8708 34.0359 28.6206 35.2861C27.3703 36.5364 26.668 38.2321 26.668 40.0002H93.3346C93.3346 38.2321 92.6323 36.5364 91.382 35.2861C90.1318 34.0359 88.4361 33.3335 86.668 33.3335Z" fill="#99AAB5"/>
</g>
<defs>
<clipPath id="clip0_565_24972">
<rect width="120" height="120" fill="white"/>
</clipPath>
</defs>
</svg>
