<svg width="16" height="12" viewBox="0 0 16 12" fill="none" xmlns="http://www.w3.org/2000/svg">
<path d="M1.132 6.3445L3.9105 2.772C4.1842 2.42002 4.56768 2.16959 5 2.0605V2C5 1.86739 5.05268 1.74022 5.14645 1.64645C5.24021 1.55268 5.36739 1.5 5.5 1.5C5.5 1.36739 5.55268 1.24022 5.64645 1.14645C5.74021 1.05268 5.86739 1 6 1C6.13261 1 6.25979 1.05268 6.35355 1.14645C6.44732 1.24022 6.5 1.36739 6.5 1.5C6.56833 1.50033 6.63217 1.513 6.6915 1.538C6.88146 1.08236 7.20205 0.693162 7.61287 0.419458C8.0237 0.145755 8.50635 -0.000197253 9 2.0008e-07H13.5C14.0304 2.0008e-07 14.5391 0.210714 14.9142 0.585787C15.2893 0.960859 15.5 1.46957 15.5 2V8.5C15.5 9.03043 15.2893 9.53914 14.9142 9.91421C14.5391 10.2893 14.0304 10.5 13.5 10.5H13.4825C13.4223 10.9166 13.214 11.2975 12.8959 11.573C12.5777 11.8485 12.1709 12.0001 11.75 12.0001C11.3291 12.0001 10.9223 11.8485 10.6041 11.573C10.286 11.2975 10.0777 10.9166 10.0175 10.5H5.9825C5.9223 10.9166 5.71403 11.2975 5.39585 11.573C5.07767 11.8485 4.67088 12.0001 4.25 12.0001C3.82912 12.0001 3.42233 11.8485 3.10415 11.573C2.78597 11.2975 2.5777 10.9166 2.5175 10.5H2.5C1.96957 10.5 1.46086 10.2893 1.08579 9.91421C0.710714 9.53914 0.5 9.03043 0.5 8.5V8.186C0.500088 7.51898 0.722471 6.871 1.132 6.3445ZM13.5 9.5C13.6755 9.5 13.848 9.45379 14 9.36602C14.152 9.27825 14.2782 9.15202 14.366 9H14C13.8674 9 13.7402 8.94732 13.6464 8.85355C13.5527 8.75979 13.5 8.63261 13.5 8.5C13.5 8.36739 13.5527 8.24021 13.6464 8.14645C13.7402 8.05268 13.8674 8 14 8H14.5V7.5H7.5V9.5H10.1685C10.3103 9.20059 10.5343 8.9476 10.8142 8.77044C11.0942 8.59329 11.4187 8.49924 11.75 8.49924C12.0813 8.49924 12.4058 8.59329 12.6858 8.77044C12.9657 8.9476 13.1897 9.20059 13.3315 9.5H13.5ZM7 9.5V3H5.489C5.3367 2.99997 5.1864 3.03473 5.04958 3.10163C4.91275 3.16852 4.79301 3.26579 4.6995 3.386L4.611 3.5H6C6.13261 3.5 6.25979 3.55268 6.35355 3.64645C6.44732 3.74022 6.5 3.86739 6.5 4V5C6.5 5.26522 6.39464 5.51957 6.20711 5.70711C6.01957 5.89464 5.76522 6 5.5 6H2.6665L1.9215 6.9585C1.794 7.12234 1.69279 7.30502 1.6215 7.5H2C2.13261 7.5 2.25979 7.55268 2.35355 7.64645C2.44732 7.74021 2.5 7.86739 2.5 8V8.5C2.5 8.63261 2.44732 8.75979 2.35355 8.85355C2.25979 8.94732 2.13261 9 2 9H1.634C1.72177 9.15202 1.848 9.27825 2.00001 9.36602C2.15203 9.45379 2.32447 9.5 2.5 9.5H2.6685C2.81034 9.20059 3.03427 8.9476 3.31423 8.77044C3.59419 8.59329 3.91869 8.49924 4.25 8.49924C4.58131 8.49924 4.90581 8.59329 5.18577 8.77044C5.46573 8.9476 5.68966 9.20059 5.8315 9.5H7ZM14.366 1.5C14.2782 1.34798 14.152 1.22175 14 1.13398C13.848 1.04621 13.6755 1 13.5 1H9C8.78896 1.00001 8.5803 1.04454 8.38765 1.1307C8.19499 1.21686 8.02269 1.3427 7.882 1.5H14.366ZM11 3C10.8674 3 10.7402 3.05268 10.6464 3.14645C10.5527 3.24022 10.5 3.36739 10.5 3.5V4H10C9.86739 4 9.74021 4.05268 9.64645 4.14645C9.55268 4.24021 9.5 4.36739 9.5 4.5C9.5 4.63261 9.55268 4.75979 9.64645 4.85355C9.74021 4.94732 9.86739 5 10 5H10.5V5.5C10.5 5.63261 10.5527 5.75979 10.6464 5.85355C10.7402 5.94732 10.8674 6 11 6C11.1326 6 11.2598 5.94732 11.3536 5.85355C11.4473 5.75979 11.5 5.63261 11.5 5.5V5H12C12.1326 5 12.2598 4.94732 12.3536 4.85355C12.4473 4.75979 12.5 4.63261 12.5 4.5C12.5 4.36739 12.4473 4.24021 12.3536 4.14645C12.2598 4.05268 12.1326 4 12 4H11.5V3.5C11.5 3.36739 11.4473 3.24022 11.3536 3.14645C11.2598 3.05268 11.1326 3 11 3ZM5 10.25C5 10.0511 4.92098 9.86032 4.78033 9.71967C4.63968 9.57902 4.44891 9.5 4.25 9.5C4.05109 9.5 3.86032 9.57902 3.71967 9.71967C3.57902 9.86032 3.5 10.0511 3.5 10.25C3.5 10.4489 3.57902 10.6397 3.71967 10.7803C3.86032 10.921 4.05109 11 4.25 11C4.44891 11 4.63968 10.921 4.78033 10.7803C4.92098 10.6397 5 10.4489 5 10.25ZM12.5 10.25C12.5 10.1515 12.4806 10.054 12.4429 9.96299C12.4052 9.87199 12.35 9.78931 12.2803 9.71967C12.2107 9.65003 12.128 9.59478 12.037 9.55709C11.946 9.5194 11.8485 9.5 11.75 9.5C11.6515 9.5 11.554 9.5194 11.463 9.55709C11.372 9.59478 11.2893 9.65003 11.2197 9.71967C11.15 9.78931 11.0948 9.87199 11.0571 9.96299C11.0194 10.054 11 10.1515 11 10.25C11 10.4489 11.079 10.6397 11.2197 10.7803C11.3603 10.921 11.5511 11 11.75 11C11.9489 11 12.1397 10.921 12.2803 10.7803C12.421 10.6397 12.5 10.4489 12.5 10.25Z" fill="white"/>
</svg>
